<svg width="791" height="51" viewBox="0 0 791 51" fill="none" xmlns="http://www.w3.org/2000/svg">
<path d="M14.904 50.576C12.472 50.576 10.04 50.4907 7.608 50.32C5.21867 50.192 2.72267 49.8507 0.12 49.296V6.288C2.168 5.904 4.408 5.62666 6.84 5.456C9.272 5.24266 11.5333 5.136 13.624 5.136C16.44 5.136 19.0213 5.34933 21.368 5.776C23.7573 6.16 25.8053 6.84266 27.512 7.824C29.2187 8.80533 30.5413 10.1067 31.48 11.728C32.4613 13.3067 32.952 15.2693 32.952 17.616C32.952 21.1573 31.2453 23.952 27.832 26C30.648 27.0667 32.568 28.5173 33.592 30.352C34.616 32.1867 35.128 34.256 35.128 36.56C35.128 41.2107 33.4213 44.7093 30.008 47.056C26.6373 49.4027 21.6027 50.576 14.904 50.576ZM9.848 30.672V42.128C10.5733 42.2133 11.3627 42.2773 12.216 42.32C13.0693 42.3627 14.008 42.384 15.032 42.384C18.0187 42.384 20.4293 41.9573 22.264 41.104C24.0987 40.2507 25.016 38.672 25.016 36.368C25.016 34.32 24.248 32.8693 22.712 32.016C21.176 31.12 18.9787 30.672 16.12 30.672H9.848ZM9.848 23.056H14.712C17.784 23.056 19.9813 22.672 21.304 21.904C22.6267 21.0933 23.288 19.8133 23.288 18.064C23.288 16.272 22.6053 15.0133 21.24 14.288C19.8747 13.5627 17.8693 13.2 15.224 13.2C14.3707 13.2 13.4533 13.2213 12.472 13.264C11.4907 13.264 10.616 13.3067 9.848 13.392V23.056ZM56.432 5.136C63.0453 5.136 68.1227 6.30933 71.664 8.656C75.2053 10.96 76.976 14.7573 76.976 20.048C76.976 25.3813 75.184 29.2427 71.6 31.632C68.016 33.9787 62.896 35.152 56.24 35.152H53.104V50H43.12V6.288C45.296 5.86133 47.6 5.56267 50.032 5.392C52.464 5.22133 54.5973 5.136 56.432 5.136ZM57.072 13.648C56.3467 13.648 55.6213 13.6693 54.896 13.712C54.2133 13.7547 53.616 13.7973 53.104 13.84V26.64H56.24C59.696 26.64 62.2987 26.1707 64.048 25.232C65.7973 24.2933 66.672 22.544 66.672 19.984C66.672 18.7467 66.4373 17.7227 65.968 16.912C65.5413 16.1013 64.9013 15.4613 64.048 14.992C63.2373 14.48 62.2347 14.1387 61.04 13.968C59.8453 13.7547 58.5227 13.648 57.072 13.648ZM97.2995 5.136C103.956 5.136 109.054 6.33066 112.596 8.72C116.137 11.0667 117.908 14.736 117.908 19.728C117.908 22.8427 117.182 25.3813 115.732 27.344C114.324 29.264 112.276 30.7787 109.588 31.888C110.484 32.9973 111.422 34.2773 112.404 35.728C113.385 37.136 114.345 38.6293 115.284 40.208C116.265 41.744 117.204 43.3653 118.1 45.072C118.996 46.736 119.828 48.3787 120.596 50H109.396C108.585 48.5493 107.753 47.0773 106.9 45.584C106.089 44.0907 105.236 42.64 104.34 41.232C103.486 39.824 102.633 38.5013 101.78 37.264C100.926 35.984 100.073 34.832 99.2195 33.808H94.2915V50H84.3075V6.288C86.4835 5.86133 88.7235 5.56267 91.0275 5.392C93.3742 5.22133 95.4648 5.136 97.2995 5.136ZM97.8755 13.648C97.1502 13.648 96.4888 13.6693 95.8915 13.712C95.3368 13.7547 94.8035 13.7973 94.2915 13.84V25.872H97.1075C100.862 25.872 103.55 25.4027 105.172 24.464C106.793 23.5253 107.604 21.9253 107.604 19.664C107.604 17.488 106.772 15.952 105.108 15.056C103.486 14.1173 101.076 13.648 97.8755 13.648ZM152.354 41.872C152.823 41.9147 153.357 41.9573 153.954 42C154.594 42 155.341 42 156.194 42C161.186 42 164.877 40.7413 167.266 38.224C169.698 35.7067 170.914 32.2293 170.914 27.792C170.914 23.1413 169.762 19.6213 167.458 17.232C165.154 14.8427 161.506 13.648 156.514 13.648C155.831 13.648 155.127 13.6693 154.402 13.712C153.677 13.712 152.994 13.7547 152.354 13.84V41.872ZM181.218 27.792C181.218 31.632 180.621 34.9813 179.426 37.84C178.231 40.6987 176.525 43.0667 174.306 44.944C172.13 46.8213 169.463 48.2293 166.306 49.168C163.149 50.1067 159.607 50.576 155.682 50.576C153.89 50.576 151.799 50.4907 149.41 50.32C147.021 50.192 144.674 49.8933 142.37 49.424V6.224C144.674 5.79733 147.063 5.52 149.538 5.392C152.055 5.22133 154.21 5.136 156.002 5.136C159.799 5.136 163.234 5.56266 166.306 6.416C169.421 7.26933 172.087 8.61333 174.306 10.448C176.525 12.2827 178.231 14.6293 179.426 17.488C180.621 20.3467 181.218 23.7813 181.218 27.792ZM201.782 43.344C202.72 43.344 203.616 43.3227 204.47 43.28C205.323 43.2373 206.006 43.1733 206.518 43.088V35.856C206.134 35.7707 205.558 35.6853 204.79 35.6C204.022 35.5147 203.318 35.472 202.678 35.472C201.782 35.472 200.928 35.536 200.118 35.664C199.35 35.7493 198.667 35.9413 198.07 36.24C197.472 36.5387 197.003 36.944 196.662 37.456C196.32 37.968 196.15 38.608 196.15 39.376C196.15 40.8693 196.64 41.9147 197.622 42.512C198.646 43.0667 200.032 43.344 201.782 43.344ZM201.014 15.44C203.83 15.44 206.176 15.76 208.054 16.4C209.931 17.04 211.424 17.9573 212.534 19.152C213.686 20.3467 214.496 21.7973 214.966 23.504C215.435 25.2107 215.67 27.1093 215.67 29.2V49.04C214.304 49.3387 212.406 49.68 209.974 50.064C207.542 50.4907 204.598 50.704 201.142 50.704C198.966 50.704 196.982 50.512 195.19 50.128C193.44 49.744 191.926 49.1253 190.646 48.272C189.366 47.376 188.384 46.224 187.702 44.816C187.019 43.408 186.678 41.68 186.678 39.632C186.678 37.6693 187.062 36.0053 187.83 34.64C188.64 33.2747 189.707 32.1867 191.03 31.376C192.352 30.5653 193.867 29.9893 195.574 29.648C197.28 29.264 199.051 29.072 200.885 29.072C202.123 29.072 203.211 29.136 204.15 29.264C205.131 29.3493 205.92 29.4773 206.518 29.648V28.752C206.518 27.1307 206.027 25.8293 205.046 24.848C204.064 23.8667 202.358 23.376 199.926 23.376C198.304 23.376 196.704 23.504 195.126 23.76C193.547 23.9733 192.182 24.2933 191.03 24.72L189.814 17.04C190.368 16.8693 191.051 16.6987 191.862 16.528C192.715 16.3147 193.632 16.144 194.614 16.016C195.595 15.8453 196.619 15.7173 197.686 15.632C198.795 15.504 199.904 15.44 201.014 15.44ZM224.293 17.488C225.914 17.0187 228.005 16.592 230.565 16.208C233.125 15.7813 235.813 15.568 238.628 15.568C241.487 15.568 243.855 15.952 245.733 16.72C247.653 17.4453 249.167 18.4907 250.277 19.856C251.386 21.2213 252.175 22.8427 252.645 24.72C253.114 26.5973 253.349 28.688 253.349 30.992V50H243.813V32.144C243.813 29.072 243.407 26.896 242.597 25.616C241.786 24.336 240.271 23.696 238.053 23.696C237.37 23.696 236.645 23.7387 235.877 23.824C235.109 23.8667 234.426 23.9307 233.829 24.016V50H224.293V17.488ZM274.844 43.344C275.783 43.344 276.679 43.3227 277.532 43.28C278.385 43.2373 279.068 43.1733 279.58 43.088V35.856C279.196 35.7707 278.62 35.6853 277.852 35.6C277.084 35.5147 276.38 35.472 275.74 35.472C274.844 35.472 273.991 35.536 273.18 35.664C272.412 35.7493 271.729 35.9413 271.132 36.24C270.535 36.5387 270.065 36.944 269.724 37.456C269.383 37.968 269.212 38.608 269.212 39.376C269.212 40.8693 269.703 41.9147 270.684 42.512C271.708 43.0667 273.095 43.344 274.844 43.344ZM274.076 15.44C276.892 15.44 279.239 15.76 281.116 16.4C282.993 17.04 284.487 17.9573 285.596 19.152C286.748 20.3467 287.559 21.7973 288.028 23.504C288.497 25.2107 288.732 27.1093 288.732 29.2V49.04C287.367 49.3387 285.468 49.68 283.036 50.064C280.604 50.4907 277.66 50.704 274.204 50.704C272.028 50.704 270.044 50.512 268.252 50.128C266.503 49.744 264.988 49.1253 263.708 48.272C262.428 47.376 261.447 46.224 260.764 44.816C260.081 43.408 259.74 41.68 259.74 39.632C259.74 37.6693 260.124 36.0053 260.892 34.64C261.703 33.2747 262.769 32.1867 264.092 31.376C265.415 30.5653 266.929 29.9893 268.636 29.648C270.343 29.264 272.113 29.072 273.948 29.072C275.185 29.072 276.273 29.136 277.212 29.264C278.193 29.3493 278.983 29.4773 279.58 29.648V28.752C279.58 27.1307 279.089 25.8293 278.108 24.848C277.127 23.8667 275.42 23.376 272.988 23.376C271.367 23.376 269.767 23.504 268.188 23.76C266.609 23.9733 265.244 24.2933 264.092 24.72L262.876 17.04C263.431 16.8693 264.113 16.6987 264.924 16.528C265.777 16.3147 266.695 16.144 267.676 16.016C268.657 15.8453 269.681 15.7173 270.748 15.632C271.857 15.504 272.967 15.44 274.076 15.44ZM326.682 5.136C333.295 5.136 338.373 6.30933 341.914 8.656C345.455 10.96 347.226 14.7573 347.226 20.048C347.226 25.3813 345.434 29.2427 341.85 31.632C338.266 33.9787 333.146 35.152 326.49 35.152H323.354V50H313.37V6.288C315.546 5.86133 317.85 5.56267 320.282 5.392C322.714 5.22133 324.847 5.136 326.682 5.136ZM327.322 13.648C326.597 13.648 325.871 13.6693 325.146 13.712C324.463 13.7547 323.866 13.7973 323.354 13.84V26.64H326.49C329.946 26.64 332.549 26.1707 334.298 25.232C336.047 24.2933 336.922 22.544 336.922 19.984C336.922 18.7467 336.687 17.7227 336.218 16.912C335.791 16.1013 335.151 15.4613 334.298 14.992C333.487 14.48 332.485 14.1387 331.29 13.968C330.095 13.7547 328.773 13.648 327.322 13.648ZM351.38 33.424C351.38 30.4373 351.828 27.8347 352.724 25.616C353.663 23.3547 354.879 21.4773 356.372 19.984C357.865 18.4907 359.572 17.36 361.492 16.592C363.455 15.824 365.46 15.44 367.508 15.44C372.287 15.44 376.063 16.912 378.836 19.856C381.609 22.7573 382.996 27.0453 382.996 32.72C382.996 33.2747 382.975 33.8933 382.932 34.576C382.889 35.216 382.847 35.792 382.804 36.304H361.172C361.385 38.2667 362.303 39.824 363.924 40.976C365.545 42.128 367.721 42.704 370.452 42.704C372.201 42.704 373.908 42.5547 375.572 42.256C377.279 41.9147 378.665 41.5093 379.732 41.04L381.012 48.784C380.5 49.04 379.817 49.296 378.964 49.552C378.111 49.808 377.151 50.0213 376.084 50.192C375.06 50.4053 373.951 50.576 372.756 50.704C371.561 50.832 370.367 50.896 369.172 50.896C366.143 50.896 363.497 50.448 361.236 49.552C359.017 48.656 357.161 47.44 355.668 45.904C354.217 44.3253 353.129 42.4693 352.404 40.336C351.721 38.2027 351.38 35.8987 351.38 33.424ZM373.78 29.776C373.737 28.9653 373.588 28.176 373.332 27.408C373.119 26.64 372.756 25.9573 372.244 25.36C371.775 24.7627 371.156 24.272 370.388 23.888C369.663 23.504 368.745 23.312 367.636 23.312C366.569 23.312 365.652 23.504 364.884 23.888C364.116 24.2293 363.476 24.6987 362.964 25.296C362.452 25.8933 362.047 26.5973 361.748 27.408C361.492 28.176 361.3 28.9653 361.172 29.776H373.78ZM410.643 24.784C409.79 24.5707 408.787 24.3573 407.635 24.144C406.483 23.888 405.246 23.76 403.923 23.76C403.326 23.76 402.6 23.824 401.747 23.952C400.936 24.0373 400.318 24.144 399.891 24.272V50H390.355V18.128C392.062 17.5307 394.067 16.976 396.371 16.464C398.718 15.9093 401.32 15.632 404.179 15.632C404.691 15.632 405.31 15.6747 406.035 15.76C406.76 15.8027 407.486 15.888 408.211 16.016C408.936 16.1013 409.662 16.2293 410.387 16.4C411.112 16.528 411.731 16.6987 412.243 16.912L410.643 24.784ZM435.851 32.144C435.851 29.072 435.446 26.896 434.635 25.616C433.867 24.336 432.523 23.696 430.603 23.696C430.006 23.696 429.387 23.7387 428.747 23.824C428.107 23.8667 427.488 23.9307 426.891 24.016V50H417.355V17.488C418.166 17.2747 419.104 17.0613 420.171 16.848C421.28 16.592 422.432 16.3787 423.627 16.208C424.864 15.9947 426.123 15.8453 427.403 15.76C428.683 15.632 429.942 15.568 431.179 15.568C433.611 15.568 435.574 15.888 437.067 16.528C438.603 17.1253 439.862 17.8507 440.843 18.704C442.208 17.7227 443.766 16.9547 445.515 16.4C447.307 15.8453 448.95 15.568 450.443 15.568C453.131 15.568 455.328 15.952 457.035 16.72C458.784 17.4453 460.171 18.4907 461.195 19.856C462.219 21.2213 462.923 22.8427 463.307 24.72C463.691 26.5973 463.883 28.688 463.883 30.992V50H454.347V32.144C454.347 29.072 453.942 26.896 453.131 25.616C452.363 24.336 451.019 23.696 449.099 23.696C448.587 23.696 447.862 23.824 446.923 24.08C446.027 24.336 445.28 24.656 444.683 25.04C444.982 26.0213 445.174 27.0667 445.259 28.176C445.344 29.2427 445.387 30.3947 445.387 31.632V50H435.851V32.144ZM485.407 43.344C486.345 43.344 487.241 43.3227 488.095 43.28C488.948 43.2373 489.631 43.1733 490.143 43.088V35.856C489.759 35.7707 489.183 35.6853 488.415 35.6C487.647 35.5147 486.943 35.472 486.303 35.472C485.407 35.472 484.553 35.536 483.743 35.664C482.975 35.7493 482.292 35.9413 481.695 36.24C481.097 36.5387 480.628 36.944 480.287 37.456C479.945 37.968 479.775 38.608 479.775 39.376C479.775 40.8693 480.265 41.9147 481.247 42.512C482.271 43.0667 483.657 43.344 485.407 43.344ZM484.639 15.44C487.455 15.44 489.801 15.76 491.679 16.4C493.556 17.04 495.049 17.9573 496.159 19.152C497.311 20.3467 498.121 21.7973 498.591 23.504C499.06 25.2107 499.295 27.1093 499.295 29.2V49.04C497.929 49.3387 496.031 49.68 493.599 50.064C491.167 50.4907 488.223 50.704 484.767 50.704C482.591 50.704 480.607 50.512 478.815 50.128C477.065 49.744 475.551 49.1253 474.271 48.272C472.991 47.376 472.009 46.224 471.327 44.816C470.644 43.408 470.303 41.68 470.303 39.632C470.303 37.6693 470.687 36.0053 471.455 34.64C472.265 33.2747 473.332 32.1867 474.655 31.376C475.977 30.5653 477.492 29.9893 479.199 29.648C480.905 29.264 482.676 29.072 484.51 29.072C485.748 29.072 486.836 29.136 487.775 29.264C488.756 29.3493 489.545 29.4773 490.143 29.648V28.752C490.143 27.1307 489.652 25.8293 488.671 24.848C487.689 23.8667 485.983 23.376 483.551 23.376C481.929 23.376 480.329 23.504 478.751 23.76C477.172 23.9733 475.807 24.2933 474.655 24.72L473.439 17.04C473.993 16.8693 474.676 16.6987 475.487 16.528C476.34 16.3147 477.257 16.144 478.239 16.016C479.22 15.8453 480.244 15.7173 481.311 15.632C482.42 15.504 483.529 15.44 484.639 15.44ZM507.598 7.952L517.134 6.416V16.336H528.59V24.272H517.134V36.112C517.134 38.1173 517.475 39.7173 518.158 40.912C518.883 42.1067 520.312 42.704 522.446 42.704C523.47 42.704 524.515 42.6187 525.582 42.448C526.691 42.2347 527.694 41.9573 528.59 41.616L529.934 49.04C528.782 49.5093 527.502 49.9147 526.094 50.256C524.686 50.5973 522.958 50.768 520.91 50.768C518.307 50.768 516.152 50.4267 514.446 49.744C512.739 49.0187 511.374 48.0373 510.35 46.8C509.326 45.52 508.6 43.984 508.174 42.192C507.79 40.4 507.598 38.416 507.598 36.24V7.952ZM547.969 43.344C548.908 43.344 549.804 43.3227 550.657 43.28C551.51 43.2373 552.193 43.1733 552.705 43.088V35.856C552.321 35.7707 551.745 35.6853 550.977 35.6C550.209 35.5147 549.505 35.472 548.865 35.472C547.969 35.472 547.116 35.536 546.305 35.664C545.537 35.7493 544.854 35.9413 544.257 36.24C543.66 36.5387 543.19 36.944 542.849 37.456C542.508 37.968 542.337 38.608 542.337 39.376C542.337 40.8693 542.828 41.9147 543.809 42.512C544.833 43.0667 546.22 43.344 547.969 43.344ZM547.201 15.44C550.017 15.44 552.364 15.76 554.241 16.4C556.118 17.04 557.612 17.9573 558.721 19.152C559.873 20.3467 560.684 21.7973 561.153 23.504C561.622 25.2107 561.857 27.1093 561.857 29.2V49.04C560.492 49.3387 558.593 49.68 556.161 50.064C553.729 50.4907 550.785 50.704 547.329 50.704C545.153 50.704 543.169 50.512 541.377 50.128C539.628 49.744 538.113 49.1253 536.833 48.272C535.553 47.376 534.572 46.224 533.889 44.816C533.206 43.408 532.865 41.68 532.865 39.632C532.865 37.6693 533.249 36.0053 534.017 34.64C534.828 33.2747 535.894 32.1867 537.217 31.376C538.54 30.5653 540.054 29.9893 541.761 29.648C543.468 29.264 545.238 29.072 547.073 29.072C548.31 29.072 549.398 29.136 550.337 29.264C551.318 29.3493 552.108 29.4773 552.705 29.648V28.752C552.705 27.1307 552.214 25.8293 551.233 24.848C550.252 23.8667 548.545 23.376 546.113 23.376C544.492 23.376 542.892 23.504 541.313 23.76C539.734 23.9733 538.369 24.2933 537.217 24.72L536.001 17.04C536.556 16.8693 537.238 16.6987 538.049 16.528C538.902 16.3147 539.82 16.144 540.801 16.016C541.782 15.8453 542.806 15.7173 543.873 15.632C544.982 15.504 546.092 15.44 547.201 15.44ZM616.127 41.424V50H586.495V5.648H596.479V41.424H616.127ZM620.318 33.424C620.318 30.4373 620.766 27.8347 621.661 25.616C622.6 23.3547 623.816 21.4773 625.31 19.984C626.803 18.4907 628.51 17.36 630.43 16.592C632.392 15.824 634.398 15.44 636.446 15.44C641.224 15.44 645 16.912 647.774 19.856C650.547 22.7573 651.934 27.0453 651.934 32.72C651.934 33.2747 651.912 33.8933 651.87 34.576C651.827 35.216 651.784 35.792 651.742 36.304H630.11C630.323 38.2667 631.24 39.824 632.862 40.976C634.483 42.128 636.659 42.704 639.39 42.704C641.139 42.704 642.846 42.5547 644.51 42.256C646.216 41.9147 647.603 41.5093 648.67 41.04L649.95 48.784C649.438 49.04 648.755 49.296 647.902 49.552C647.048 49.808 646.088 50.0213 645.022 50.192C643.998 50.4053 642.888 50.576 641.694 50.704C640.499 50.832 639.304 50.896 638.11 50.896C635.08 50.896 632.435 50.448 630.174 49.552C627.955 48.656 626.099 47.44 624.606 45.904C623.155 44.3253 622.067 42.4693 621.342 40.336C620.659 38.2027 620.318 35.8987 620.318 33.424ZM642.718 29.776C642.675 28.9653 642.526 28.176 642.27 27.408C642.056 26.64 641.694 25.9573 641.182 25.36C640.712 24.7627 640.094 24.272 639.326 23.888C638.6 23.504 637.683 23.312 636.574 23.312C635.507 23.312 634.59 23.504 633.822 23.888C633.054 24.2293 632.414 24.6987 631.902 25.296C631.39 25.8933 630.984 26.5973 630.686 27.408C630.43 28.176 630.238 28.9653 630.11 29.776H642.718ZM668.957 43.152C670.706 43.152 671.943 42.9813 672.669 42.64C673.394 42.2987 673.757 41.6373 673.757 40.656C673.757 39.888 673.287 39.2267 672.349 38.672C671.41 38.0747 669.981 37.4133 668.061 36.688C666.567 36.1333 665.202 35.5573 663.965 34.96C662.77 34.3627 661.746 33.6587 660.893 32.848C660.039 31.9947 659.378 30.992 658.909 29.84C658.439 28.688 658.205 27.3013 658.205 25.68C658.205 22.5227 659.378 20.0267 661.725 18.192C664.071 16.3573 667.293 15.44 671.389 15.44C673.437 15.44 675.399 15.632 677.277 16.016C679.154 16.3573 680.647 16.7413 681.757 17.168L680.093 24.592C678.983 24.208 677.767 23.8667 676.445 23.568C675.165 23.2693 673.714 23.12 672.093 23.12C669.106 23.12 667.613 23.952 667.613 25.616C667.613 26 667.677 26.3413 667.805 26.64C667.933 26.9387 668.189 27.2373 668.573 27.536C668.957 27.792 669.469 28.0907 670.109 28.432C670.791 28.7307 671.645 29.072 672.669 29.456C674.759 30.224 676.487 30.992 677.853 31.76C679.218 32.4853 680.285 33.296 681.053 34.192C681.863 35.0453 682.418 36.0053 682.717 37.072C683.058 38.1387 683.229 39.376 683.229 40.784C683.229 44.112 681.97 46.6293 679.453 48.336C676.978 50.0427 673.458 50.896 668.893 50.896C665.906 50.896 663.41 50.64 661.405 50.128C659.442 49.616 658.077 49.1893 657.309 48.848L658.909 41.104C660.53 41.744 662.194 42.256 663.901 42.64C665.607 42.9813 667.293 43.152 668.957 43.152ZM690.035 7.952L699.571 6.416V16.336H711.027V24.272H699.571V36.112C699.571 38.1173 699.912 39.7173 700.595 40.912C701.32 42.1067 702.75 42.704 704.883 42.704C705.907 42.704 706.952 42.6187 708.019 42.448C709.128 42.2347 710.131 41.9573 711.027 41.616L712.371 49.04C711.219 49.5093 709.939 49.9147 708.531 50.256C707.123 50.5973 705.395 50.768 703.347 50.768C700.744 50.768 698.59 50.4267 696.883 49.744C695.176 49.0187 693.811 48.0373 692.787 46.8C691.763 45.52 691.038 43.984 690.611 42.192C690.227 40.4 690.035 38.416 690.035 36.24V7.952ZM730.407 43.344C731.345 43.344 732.241 43.3227 733.095 43.28C733.948 43.2373 734.631 43.1733 735.143 43.088V35.856C734.759 35.7707 734.183 35.6853 733.415 35.6C732.647 35.5147 731.943 35.472 731.303 35.472C730.407 35.472 729.553 35.536 728.743 35.664C727.975 35.7493 727.292 35.9413 726.695 36.24C726.097 36.5387 725.628 36.944 725.287 37.456C724.945 37.968 724.775 38.608 724.775 39.376C724.775 40.8693 725.265 41.9147 726.247 42.512C727.271 43.0667 728.657 43.344 730.407 43.344ZM729.639 15.44C732.455 15.44 734.801 15.76 736.679 16.4C738.556 17.04 740.049 17.9573 741.159 19.152C742.311 20.3467 743.121 21.7973 743.591 23.504C744.06 25.2107 744.295 27.1093 744.295 29.2V49.04C742.929 49.3387 741.031 49.68 738.599 50.064C736.167 50.4907 733.223 50.704 729.767 50.704C727.591 50.704 725.607 50.512 723.815 50.128C722.065 49.744 720.551 49.1253 719.271 48.272C717.991 47.376 717.009 46.224 716.327 44.816C715.644 43.408 715.303 41.68 715.303 39.632C715.303 37.6693 715.687 36.0053 716.455 34.64C717.265 33.2747 718.332 32.1867 719.655 31.376C720.977 30.5653 722.492 29.9893 724.199 29.648C725.905 29.264 727.676 29.072 729.51 29.072C730.748 29.072 731.836 29.136 732.775 29.264C733.756 29.3493 734.545 29.4773 735.143 29.648V28.752C735.143 27.1307 734.652 25.8293 733.671 24.848C732.689 23.8667 730.983 23.376 728.551 23.376C726.929 23.376 725.329 23.504 723.751 23.76C722.172 23.9733 720.807 24.2933 719.655 24.72L718.439 17.04C718.993 16.8693 719.676 16.6987 720.487 16.528C721.34 16.3147 722.257 16.144 723.239 16.016C724.22 15.8453 725.244 15.7173 726.311 15.632C727.42 15.504 728.529 15.44 729.639 15.44ZM773.206 24.784C772.352 24.5707 771.35 24.3573 770.198 24.144C769.046 23.888 767.808 23.76 766.486 23.76C765.888 23.76 765.163 23.824 764.31 23.952C763.499 24.0373 762.88 24.144 762.454 24.272V50H752.918V18.128C754.624 17.5307 756.63 16.976 758.934 16.464C761.28 15.9093 763.883 15.632 766.742 15.632C767.254 15.632 767.872 15.6747 768.598 15.76C769.323 15.8027 770.048 15.888 770.774 16.016C771.499 16.1013 772.224 16.2293 772.95 16.4C773.675 16.528 774.294 16.6987 774.806 16.912L773.206 24.784ZM789.454 50H779.918V16.336H789.454V50ZM790.35 6.608C790.35 8.35733 789.774 9.744 788.622 10.768C787.512 11.7493 786.19 12.24 784.654 12.24C783.118 12.24 781.774 11.7493 780.622 10.768C779.512 9.744 778.958 8.35733 778.958 6.608C778.958 4.85866 779.512 3.49333 780.622 2.512C781.774 1.488 783.118 0.975998 784.654 0.975998C786.19 0.975998 787.512 1.488 788.622 2.512C789.774 3.49333 790.35 4.85866 790.35 6.608Z" fill="#F4F5F8"/>
</svg>
